HIERARCHY
ROOT Hips
{
	OFFSET -0.001795 -0.223333 0.028219
	CHANNELS 6 Xposition Yposition Zposition Zrotation Yrotation Xrotation 
	JOINT LeftUpLeg
	{
		OFFSET 0.069520 -0.091406 -0.006815
		CHANNELS 3 Zrotation Yrotation Xrotation
		JOINT LeftLeg
		{
			OFFSET 0.034277 -0.375199 -0.004496
			CHANNELS 3 Zrotation Yrotation Xrotation
			JOINT LeftFoot
			{
				OFFSET -0.013596 -0.397961 -0.043693
				CHANNELS 3 Zrotation Yrotation Xrotation
				JOINT LeftToe
				{
					OFFSET 0.026358 -0.055791 0.119288
					CHANNELS 3 Zrotation Yrotation Xrotation
					End Site
					{
						OFFSET 0.000000 0.000000 0.000000
					}
				}
			}
		}
	}
	JOINT RightUpLeg
	{
		OFFSET -0.067670 -0.090522 -0.004320
		CHANNELS 3 Zrotation Yrotation Xrotation
		JOINT RightLeg
		{
			OFFSET -0.038290 -0.382569 -0.008850
			CHANNELS 3 Zrotation Yrotation Xrotation
			JOINT RightFoot
			{
				OFFSET 0.015774 -0.398415 -0.042312
				CHANNELS 3 Zrotation Yrotation Xrotation
				JOINT RightToe
				{
					OFFSET -0.025372 -0.048144 0.123348
					CHANNELS 3 Zrotation Yrotation Xrotation
					End Site
					{
						OFFSET 0.000000 0.000000 0.000000
					}
				}
			}
		}
	}
	JOINT Spine
	{
		OFFSET -0.002533 0.108963 -0.026696
		CHANNELS 3 Zrotation Yrotation Xrotation
		JOINT Spine1
		{
			OFFSET 0.005487 0.135180 0.001092
			CHANNELS 3 Zrotation Yrotation Xrotation
			JOINT Spine2
			{
				OFFSET 0.001457 0.052922 0.025425
				CHANNELS 3 Zrotation Yrotation Xrotation
				JOINT Neck
				{
					OFFSET -0.002778 0.213870 -0.042857
					CHANNELS 3 Zrotation Yrotation Xrotation
					JOINT Head
					{
						OFFSET 0.005152 0.064970 0.051349
						CHANNELS 3 Zrotation Yrotation Xrotation
						End Site
						{
							OFFSET 0.000000 0.000000 0.000000
						}
					}
				}
				JOINT LeftShoulder
				{
					OFFSET 0.078845 0.121749 -0.034090
					CHANNELS 3 Zrotation Yrotation Xrotation
					JOINT LeftArm
					{
						OFFSET 0.090977 0.030469 -0.008868
						CHANNELS 3 Zrotation Yrotation Xrotation
						JOINT LeftForeArm
						{
							OFFSET 0.259612 -0.012772 -0.027456
							CHANNELS 3 Zrotation Yrotation Xrotation
							JOINT LeftHand
							{
								OFFSET 0.249234 0.008986 -0.001171
								CHANNELS 3 Zrotation Yrotation Xrotation
								End Site
								{
									OFFSET 0.000000 0.000000 0.000000
								}
							}
						}
					}
				}
				JOINT RightShoulder
				{
					OFFSET -0.081759 0.118833 -0.038615
					CHANNELS 3 Zrotation Yrotation Xrotation
					JOINT RightArm
					{
						OFFSET -0.096012 0.032551 -0.009143
						CHANNELS 3 Zrotation Yrotation Xrotation
						JOINT RightForeArm
						{
							OFFSET -0.253742 -0.013329 -0.021401
							CHANNELS 3 Zrotation Yrotation Xrotation
							JOINT RightHand
							{
								OFFSET -0.255298 0.007772 -0.005559
								CHANNELS 3 Zrotation Yrotation Xrotation
								End Site
								{
									OFFSET 0.000000 0.000000 0.000000
								}
							}
						}
					}
				}
			}
		}
	}
}
MOTION
Frames: 13
Frame Time: 0.050000
0.000000 0.958342 0.000000 -1.240251 1.253879 2.404538 5.529554 -0.162997 -1.166103 -3.920406 0.411978 -3.923810 5.590280 14.219583 15.818876 0.000000 0.000000 0.000000 -4.693167 0.364023 -4.062283 1.380250 -0.092652 2.115618 -16.027993 -27.050104 46.813566 0.000000 0.000000 0.000000 -0.122026 -0.518738 12.431872 5.674243 -0.916316 -21.540440 0.274248 -1.080261 25.014472 -1.664841 2.351424 -22.379579 0.000000 0.000000 0.000000 -20.279002 -15.739213 7.719645 -46.840425 -32.789824 5.142355 -51.011738 -57.783205 33.998040 0.000000 0.000000 0.000000 12.592392 18.255563 7.944709 43.089673 17.463680 -0.125611 31.296001 58.539838 20.523032 0.000000 0.000000 0.000000 
0.000863 0.957297 0.001208 -1.515360 0.290601 2.491968 5.589237 -0.134279 -0.709569 -3.707314 0.405687 -4.476891 6.143677 14.907510 15.734555 0.000000 0.000000 0.000000 -4.502664 0.350419 -3.644962 1.093338 -0.067879 1.608647 -13.914017 -25.515240 44.067437 0.000000 0.000000 0.000000 -0.379827 -0.459082 12.007043 5.495994 -0.786248 -22.914695 0.332617 -1.051275 25.754988 -1.509571 2.200099 -23.284855 0.000000 0.000000 0.000000 -19.729194 -14.463484 7.149223 -48.298689 -33.015670 5.445239 -55.693222 -57.025183 36.983244 0.000000 0.000000 0.000000 12.156417 17.984491 7.666090 44.139282 15.848621 -0.679304 36.796308 58.683453 23.839014 0.000000 0.000000 0.000000 
0.001468 0.957192 0.002220 -1.464747 -0.507852 2.184701 5.803558 -0.112790 -0.468380 -4.340522 0.460196 -3.966135 6.548040 15.415421 15.742721 0.000000 0.000000 0.000000 -4.794877 0.344810 -3.497933 1.167225 -0.070723 1.726971 -13.183066 -24.926847 44.053267 0.000000 0.000000 0.000000 -0.823182 -0.377418 11.467297 6.248444 -1.016330 -22.596182 -0.246919 -0.305523 24.702291 -1.461645 2.163192 -21.330483 0.000000 0.000000 0.000000 -20.283357 -14.043893 6.848999 -48.481766 -31.584645 4.961002 -54.759939 -55.118920 34.834221 0.000000 0.000000 0.000000 12.846496 17.611734 7.594175 43.909669 13.903045 -1.266655 40.893352 58.536107 26.237740 0.000000 0.000000 0.000000 
0.001884 0.956607 0.003032 -1.566124 -1.044226 2.149803 5.690364 -0.089643 -0.121438 -4.066725 0.444569 -4.254648 6.852746 15.803449 15.701101 0.000000 0.000000 0.000000 -4.833907 0.338569 -3.307753 1.301221 -0.089031 1.579554 -12.602401 -24.527332 42.948726 0.000000 0.000000 0.000000 -1.529237 -0.271051 10.743650 7.090651 -1.228528 -22.731749 -0.591146 -0.675449 25.101430 -1.188666 1.885949 -21.398242 0.000000 0.000000 0.000000 -20.220398 -13.299431 6.628565 -50.072369 -31.085114 4.989546 -55.247669 -53.606203 34.372012 0.000000 0.000000 0.000000 11.820257 17.042823 7.088256 44.655395 13.165443 -1.535679 45.402451 58.729039 29.038399 0.000000 0.000000 0.000000 
0.002179 0.956744 0.003685 -1.600056 -1.363243 1.895131 5.672679 -0.072097 0.110322 -4.043358 0.446353 -4.002381 7.016041 16.010939 15.703883 0.000000 0.000000 0.000000 -4.920480 0.329248 -3.143752 1.240250 -0.088383 1.329285 -12.546826 -24.395383 44.578673 0.000000 0.000000 0.000000 -1.604027 -0.252934 10.441889 7.092324 -1.273674 -22.305365 -0.921188 -1.426525 24.450850 -0.963997 1.571241 -20.686268 0.000000 0.000000 0.000000 -20.295044 -13.039667 6.733185 -50.130512 -30.921945 4.967480 -54.474794 -53.343003 33.888919 0.000000 0.000000 0.000000 11.897669 16.597181 6.699523 44.206756 12.128670 -1.798774 48.891371 59.380508 31.321206 0.000000 0.000000 0.000000 
0.002469 0.956763 0.003900 -1.793135 -1.968149 1.924084 5.701231 -0.066004 0.078222 -3.832750 0.435317 -3.794249 7.367017 16.469397 15.774286 0.000000 0.000000 0.000000 -4.756372 0.353235 -3.459274 1.232557 -0.074744 1.688112 -12.226549 -24.192720 44.295002 0.000000 0.000000 0.000000 -1.744569 -0.232822 10.409577 7.124548 -1.224682 -23.051890 -0.813026 -1.703289 24.986008 -1.124242 1.570093 -20.635678 0.000000 0.000000 0.000000 -20.545742 -13.249571 7.086016 -50.218435 -30.935267 4.908193 -55.559083 -52.905777 34.488181 0.000000 0.000000 0.000000 11.948173 16.808158 6.689223 43.097128 11.631120 -1.973282 51.132216 61.002726 33.609970 0.000000 0.000000 0.000000 
0.002599 0.956736 0.003862 -1.806012 -2.220760 2.009170 5.585956 -0.064943 0.021653 -3.655798 0.422870 -3.790524 7.515553 16.662471 15.836008 0.000000 0.000000 0.000000 -4.837464 0.381718 -3.887927 1.375945 -0.078830 2.085058 -12.348819 -24.316016 44.637952 0.000000 0.000000 0.000000 -1.743556 -0.224523 10.155009 7.200823 -1.235774 -23.165782 -1.250150 -2.078061 24.844303 -0.895046 1.354130 -20.932435 0.000000 0.000000 0.000000 -20.759374 -13.171813 7.208386 -50.080372 -30.892259 4.852249 -58.074931 -52.357444 35.842104 0.000000 0.000000 0.000000 11.773765 16.545737 6.460111 41.938643 11.613776 -1.929722 54.733197 62.583167 36.923043 0.000000 0.000000 0.000000 
0.002674 0.957130 0.003843 -2.072198 -2.735428 2.091739 5.617309 -0.065670 -0.118824 -3.273622 0.393822 -3.534774 7.821469 17.064252 15.992707 0.000000 0.000000 0.000000 -4.579109 0.408932 -4.245410 1.477572 -0.080005 2.387445 -12.344853 -24.380998 44.600025 0.000000 0.000000 0.000000 -1.643249 -0.221320 9.715714 7.283687 -1.270959 -23.059269 -1.422612 -2.312204 24.885443 -0.892530 1.272435 -20.989973 0.000000 0.000000 0.000000 -20.761611 -13.222038 7.397900 -50.439467 -31.182508 5.034712 -60.285437 -52.285337 37.428942 0.000000 0.000000 0.000000 10.998705 16.305173 6.202501 40.885073 11.709038 -1.867362 58.343758 64.219834 40.436460 0.000000 0.000000 0.000000 
0.002520 0.957634 0.004185 -2.052519 -2.918690 2.133707 5.485679 -0.050359 0.157955 -3.090931 0.383478 -4.015421 7.863997 17.122681 16.291949 0.000000 0.000000 0.000000 -4.463530 0.413482 -4.284569 1.253044 -0.055256 2.288918 -12.365430 -24.404398 44.867511 0.000000 0.000000 0.000000 -1.521663 -0.224213 9.383439 7.348914 -1.294606 -23.009695 -1.757210 -2.518584 24.898356 -1.061274 1.336105 -21.056770 0.000000 0.000000 0.000000 -20.888507 -13.424714 7.616633 -50.562425 -31.473737 5.184626 -61.487940 -52.126119 38.200382 0.000000 0.000000 0.000000 10.654817 15.961124 5.980304 39.854331 11.732428 -1.835886 61.379666 65.437033 43.464899 0.000000 0.000000 0.000000 
0.002134 0.958022 0.005018 -1.934881 -2.924762 2.054922 5.511478 -0.040738 0.352120 -3.321688 0.403019 -4.120669 7.812401 17.055177 16.439215 0.000000 0.000000 0.000000 -4.421958 0.411745 -4.269791 0.995090 -0.025509 2.257961 -12.744008 -24.675724 45.864885 0.000000 0.000000 0.000000 -1.459071 -0.222705 9.077013 7.244262 -1.265122 -23.055550 -1.887385 -2.762177 25.103847 -0.997772 1.246899 -20.954429 0.000000 0.000000 0.000000 -20.909567 -13.447746 7.718777 -50.833308 -31.659631 5.285418 -62.994519 -52.080594 39.322826 0.000000 0.000000 0.000000 10.286248 15.586781 5.761635 39.258663 11.658970 -1.865072 64.425127 66.269679 46.353274 0.000000 0.000000 0.000000 
0.001604 0.958420 0.006017 -1.867717 -2.787351 1.889776 5.499328 -0.031719 0.543016 -3.352047 0.404182 -4.067542 7.704300 16.915592 16.494621 0.000000 0.000000 0.000000 -4.367087 0.378887 -3.789585 0.745218 -0.002053 2.090853 -12.148291 -24.166296 45.171804 0.000000 0.000000 0.000000 -1.249472 -0.235253 8.739594 6.981563 -1.211035 -22.967901 -2.037438 -3.145619 25.386756 -1.112578 1.260873 -20.748587 0.000000 0.000000 0.000000 -20.389400 -13.686656 7.869514 -51.036867 -32.054059 5.505878 -64.003503 -52.214767 40.233397 0.000000 0.000000 0.000000 9.961095 15.354926 5.604179 38.364734 11.373002 -1.939544 65.453660 66.737497 47.363092 0.000000 0.000000 0.000000 
0.001145 0.958848 0.006713 -1.808002 -2.545789 1.707563 5.540243 -0.025855 0.704130 -3.451494 0.410213 -3.994151 7.537346 16.702704 16.527950 0.000000 0.000000 0.000000 -4.403144 0.350146 -3.388389 0.558946 0.011355 1.871905 -11.638931 -23.650072 45.467518 0.000000 0.000000 0.000000 -1.012905 -0.253970 8.577132 6.891946 -1.224846 -22.560675 -2.158796 -3.230165 25.412276 -1.126853 1.275954 -20.715677 0.000000 0.000000 0.000000 -19.966345 -13.863684 7.886866 -50.918236 -32.381497 5.654059 -64.973436 -52.739621 41.309551 0.000000 0.000000 0.000000 9.989220 15.181434 5.543667 38.020234 11.144484 -2.004176 64.990146 66.844754 47.096271 0.000000 0.000000 0.000000 
0.000693 0.959024 0.006849 -1.657015 -2.198574 1.590419 5.385387 -0.029375 0.641009 -3.369778 0.399953 -3.753570 7.348529 16.463098 16.473185 0.000000 0.000000 0.000000 -4.502987 0.331128 -3.138467 0.335168 0.038336 1.908451 -11.027567 -23.059236 45.168055 0.000000 0.000000 0.000000 -0.989633 -0.255921 8.525688 6.987492 -1.266835 -22.290903 -2.162819 -3.322903 25.501563 -1.052558 1.246668 -20.881946 0.000000 0.000000 0.000000 -19.294256 -13.986574 7.823002 -50.724521 -32.875521 5.872212 -65.519957 -53.193518 42.022555 0.000000 0.000000 0.000000 9.758307 15.232666 5.576432 37.487853 10.959867 -2.047661 63.799900 67.187868 46.438769 0.000000 0.000000 0.000000 
